<svg xmlns="http://www.w3.org/2000/svg" viewBox="0 0 145.8 15.18"><defs><style>.cls-1{fill:#262626;}.cls-2{fill:#fff;stroke:#262626;stroke-miterlimit:10;stroke-width:0.5px;}</style></defs><g id="Layer_2" data-name="Layer 2"><g id="Design"><path class="cls-1" d="M139.64,10a2.68,2.68,0,0,1,1.88-3.22l.72-.28a1.55,1.55,0,0,0,1-1.42,1.47,1.47,0,0,0-1.62-1.52,1.71,1.71,0,0,0-1.72,1.74H137.5A4,4,0,0,1,141.68,1a3.81,3.81,0,0,1,4.12,3.9,3.86,3.86,0,0,1-2.7,3.78c-.76.26-1.3.46-1.3,1.28l0,.38h-2.14Zm-.6,3.58A1.61,1.61,0,0,1,140.7,12a1.61,1.61,0,1,1-1.66,1.6Z"/><path class="cls-1" d="M3.72,9.27H2.78v4.94H0V.43H5.5A4.24,4.24,0,0,1,10,4.93a4,4,0,0,1-3.34,4.2l3.58,5.08H7ZM2.78,7H5A2,2,0,0,0,7.22,5a2,2,0,0,0-2-2.1H2.78Z"/><path class="cls-1" d="M22.54,11.75v2.46H13.72V.43h8.64V2.89H16.5V6.17h5.14v2.5H16.5v3.08Z"/><path class="cls-1" d="M36.48.43V14.21H34L29,5.57v8.64H26.2V.43h2.58L33.7,9V.43Z"/><path class="cls-1" d="M40.84.43h5.4c4,0,6.26,3,6.26,6.92s-2.3,6.86-6.26,6.86h-5.4Zm5.4,11.32c2.3,0,3.48-2,3.48-4.4s-1.18-4.46-3.48-4.46H43.62v8.86Z"/><path class="cls-1" d="M64.9,11.75v2.46H56.08V.43h8.64V2.89H58.86V6.17H64v2.5H58.86v3.08Z"/><path class="cls-1" d="M77.72,2.57l-6.5,9.18h6.5v2.46h-10V12.07L74.1,2.89H67.94V.43h9.78Z"/><path class="cls-1" d="M90.86.43,86.68,14.21h-2.5L80,.43h2.88l2.54,9.3L88,.43Z"/><path class="cls-1" d="M92.72,7.33a7,7,0,1,1,14,0,7,7,0,1,1-14,0Zm11.22,0a4.23,4.23,0,1,0-8.44,0,4.23,4.23,0,1,0,8.44,0Z"/><path class="cls-1" d="M110.12,9.29V.43h2.78v8.7a2.49,2.49,0,1,0,5,0V.43h2.78V9.29a5.27,5.27,0,0,1-10.54,0Z"/><path class="cls-1" d="M124.08,10.15h2.78A2.07,2.07,0,0,0,129.12,12c1.24,0,2.06-.64,2.06-1.62,0-.76-.56-1.3-1.74-1.66l-1.68-.48c-3-.8-3.56-2.62-3.56-3.86,0-2.46,2.12-4.1,4.76-4.1s4.6,1.58,4.6,4.2h-2.78A1.91,1.91,0,0,0,127,4.29c0,.34.1,1.06,1.54,1.46l1.54.44c2.08.58,3.9,1.68,3.9,4,0,2.74-2.34,4.18-4.94,4.18C126.1,14.39,124.08,12.59,124.08,10.15Z"/><path class="cls-2" d="M138.64,9.19A2.68,2.68,0,0,1,140.52,6l.72-.28a1.55,1.55,0,0,0,1-1.42,1.47,1.47,0,0,0-1.62-1.52,1.71,1.71,0,0,0-1.72,1.74H136.5A4,4,0,0,1,140.68.25a3.81,3.81,0,0,1,4.12,3.9,3.86,3.86,0,0,1-2.7,3.78c-.76.26-1.3.46-1.3,1.28l0,.38h-2.14Zm-.6,3.58a1.61,1.61,0,0,1,1.66-1.6,1.61,1.61,0,1,1-1.66,1.6Z"/></g></g></svg>